<?xml version="1.0" encoding="iso-8859-1"?>
<!-- Generator: Adobe Illustrator 19.0.0, SVG Export Plug-In . SVG Version: 6.00 Build 0)  -->
<svg version="1.1" id="Layer_1" xmlns="http://www.w3.org/2000/svg" xmlns:xlink="http://www.w3.org/1999/xlink" x="0px" y="0px"
	 viewBox="0 0 512 512" style="enable-background:new 0 0 512 512;" xml:space="preserve">
<path style="fill:#C1272D;" d="M397.814,306.769C284.271,420.312,60.66,469.204,14.158,422.703
	c-25.633-25.633,78.846-72.793,150.594-150.594c34.625-37.546,50.02-73.742,81.273-119.519
	c71.813-105.187,113.521-60.18,162.148-11.554S487.874,216.71,397.814,306.769z"/>
<path style="fill:#006837;" d="M501.799,83.265L501.799,83.265c-24.871-17.502-58.725-14.58-80.23,6.924l-32.118,32.118
	l36.653,36.653l26.019-26.019c10.752-10.752,27.68-12.214,40.114-3.463l0,0L501.799,83.265z"/>
<path d="M507.669,74.924c-28.996-20.404-68.24-17.017-93.311,8.054l-25.299,25.3c-20.62-18.54-41.725-32.083-66.739-29.751
	c-27.743,2.584-54.664,24.29-84.716,68.312c-11.201,16.405-20.27,31.394-29.04,45.889c-15.89,26.262-29.613,48.942-51.307,72.466
	c-29.349,31.825-65.093,59.029-93.813,80.889c-37.4,28.465-62.109,47.27-63.39,66.25c-0.443,6.55,1.942,12.63,6.895,17.583
	c14.72,14.72,41.129,20.455,71.863,20.454c32.958,0,70.887-6.595,104.708-15.774c88.007-23.887,168.743-67.849,221.51-120.615
	c43.854-43.854,62.448-76.181,60.287-104.815c-1.412-18.712-11.415-34.254-25.195-49.798l19.216-19.216
	c7.264-7.265,18.633-8.244,27.033-2.334c2.811,1.978,6.429,2.407,9.623,1.142c3.195-1.264,5.539-4.052,6.235-7.417l9.562-46.215
	C512.61,81.352,510.992,77.263,507.669,74.924z M390.602,299.557c-49.584,49.585-128.998,92.708-212.429,115.353
	c-72.884,19.782-137.365,20.02-156.804,0.581c-1.019-1.019-0.989-1.443-0.967-1.785c0.114-1.691,1.745-6.883,14.395-18.544
	c10.24-9.438,24.493-20.287,40.997-32.847c29.356-22.343,65.891-50.149,96.455-83.292c23.088-25.035,37.989-49.662,53.765-75.735
	c8.627-14.258,17.549-29.003,28.433-44.947c26.004-38.089,48.823-57.553,69.761-59.503c1.19-0.111,2.375-0.165,3.555-0.165
	c23.678,0,45.494,21.844,70.568,46.947l5.757,5.756c21.997,21.957,39.372,39.301,40.882,59.326
	C446.624,232.578,429.347,260.813,390.602,299.557z M484.831,114.938c-13.937-3.695-29.199,0.071-39.921,10.792l-18.806,18.807
	l-22.229-22.228l24.906-24.906c16.484-16.484,41.478-19.941,61.586-9.22L484.831,114.938z"/>
<path d="M222.246,362.097c-27.146,10.705-55.479,19.026-81.936,24.061c-5.534,1.054-9.166,6.393-8.112,11.926
	c0.931,4.889,5.208,8.294,10.008,8.294c0.632,0,1.275-0.059,1.918-0.182c27.69-5.27,57.292-13.959,85.606-25.124
	c5.24-2.066,7.814-7.989,5.746-13.229C233.41,362.603,227.488,360.028,222.246,362.097z"/>
<path d="M99.24,391.38c-6.197,0.338-12.138,0.421-17.659,0.244c-5.621-0.174-10.34,4.238-10.519,9.869
	c-0.18,5.63,4.239,10.34,9.869,10.519c2.101,0.066,4.252,0.101,6.447,0.101c4.186,0,8.529-0.122,12.977-0.365
	c5.625-0.307,9.935-5.116,9.627-10.741C109.673,395.384,104.872,391.08,99.24,391.38z"/>
<g>
</g>
<g>
</g>
<g>
</g>
<g>
</g>
<g>
</g>
<g>
</g>
<g>
</g>
<g>
</g>
<g>
</g>
<g>
</g>
<g>
</g>
<g>
</g>
<g>
</g>
<g>
</g>
<g>
</g>
</svg>
